<?xml version="1.0" standalone="no"?>
<!DOCTYPE svg PUBLIC "-//W3C//DTD SVG 20010904//EN"
 "http://www.w3.org/TR/2001/REC-SVG-20010904/DTD/svg10.dtd">
<svg version="1.0" xmlns="http://www.w3.org/2000/svg"
 width="1616.000000pt" height="1616.000000pt" viewBox="0 0 1616.000000 1616.000000"
 preserveAspectRatio="xMidYMid meet">
<metadata>
Created by potrace 1.14, written by Peter Selinger 2001-2017
</metadata>
<g transform="translate(0.000000,1616.000000) scale(0.100000,-0.100000)"
fill="#000000" stroke="none">
<path d="M5970 12039 c-63 -88 -121 -168 -128 -177 -21 -27 -179 -241 -225
-305 -56 -77 -235 -319 -245 -332 -4 -5 -18 -26 -32 -45 -13 -19 -27 -37 -30
-40 -3 -3 -21 -27 -40 -55 -19 -27 -39 -55 -45 -62 -18 -22 -30 -37 -69 -93
-22 -30 -43 -56 -48 -58 -4 -2 -8 -8 -8 -12 0 -7 -108 -157 -148 -205 -4 -5
-22 -31 -40 -57 -18 -25 -38 -52 -45 -60 -7 -7 -16 -20 -20 -28 -7 -15 -285
-393 -309 -420 -8 -8 -25 -32 -38 -52 -14 -21 -28 -38 -32 -38 -5 0 -8 -5 -8
-11 0 -11 -89 -132 -102 -137 -4 -2 -8 -8 -8 -14 0 -5 -6 -16 -12 -23 -7 -8
-24 -30 -38 -50 -14 -21 -33 -46 -42 -56 -10 -10 -18 -21 -18 -24 0 -3 -5 -11
-10 -18 -17 -20 -94 -124 -110 -147 -23 -35 -64 -85 -72 -88 -5 -2 -8 -8 -8
-14 0 -8 -45 -74 -60 -88 -3 -3 -17 -21 -30 -40 -13 -19 -29 -40 -35 -47 -5
-7 -32 -44 -60 -83 -27 -39 -62 -86 -77 -103 -15 -18 -28 -37 -28 -44 0 -6 -4
-13 -8 -15 -7 -3 -43 -48 -94 -119 -9 -13 -38 -53 -65 -89 -26 -36 -90 -124
-142 -195 -52 -72 -100 -135 -108 -141 -7 -6 -13 -15 -13 -20 0 -8 -28 -47
-64 -86 -9 -10 -16 -20 -16 -23 0 -3 -5 -11 -10 -18 -6 -7 -67 -88 -136 -182
-68 -93 -131 -178 -139 -188 -8 -9 -15 -21 -15 -26 0 -5 -4 -11 -8 -13 -4 -1
-23 -25 -42 -53 -19 -27 -42 -58 -51 -68 -9 -10 -34 -43 -55 -75 -21 -31 -44
-64 -52 -72 -11 -12 -76 -100 -217 -295 -11 -15 -41 -55 -66 -89 -65 -87 -208
-281 -254 -346 -46 -63 -47 -65 -78 -105 -13 -16 -52 -70 -88 -120 -35 -49
-66 -92 -69 -95 -3 -3 -48 -63 -100 -135 -81 -113 -110 -151 -148 -200 -4 -5
-17 -25 -27 -42 -11 -18 -22 -33 -26 -33 -3 0 -19 -20 -35 -45 -15 -25 -32
-45 -36 -45 -4 0 -8 -6 -8 -13 0 -7 -10 -23 -23 -37 -13 -14 -38 -47 -57 -75
-19 -27 -40 -56 -46 -65 -7 -8 -34 -44 -60 -80 -26 -36 -68 -93 -93 -127 -25
-34 -68 -93 -96 -130 -27 -37 -56 -74 -63 -81 -6 -7 -12 -17 -12 -21 0 -4 -8
-16 -18 -27 -9 -10 -39 -49 -65 -86 -26 -36 -54 -73 -62 -82 -8 -8 -15 -19
-15 -23 0 -5 -8 -18 -18 -29 -9 -10 -44 -55 -76 -99 -32 -44 -78 -106 -102
-138 -24 -31 -44 -61 -44 -66 0 -5 -7 -11 -15 -15 -8 -3 -15 -10 -15 -16 0 -6
-6 -18 -12 -25 -20 -22 -31 -37 -58 -75 -14 -19 -30 -42 -37 -50 -7 -8 -29
-39 -50 -68 -112 -156 -248 -337 -255 -340 -4 -2 -8 -8 -8 -14 0 -5 -6 -15
-12 -22 -7 -8 -20 -24 -28 -36 -8 -12 -20 -28 -25 -34 -6 -6 -21 -28 -35 -48
-14 -21 -28 -38 -32 -38 -5 0 -8 -6 -8 -14 0 -8 -4 -16 -8 -18 -5 -1 -23 -24
-40 -50 -18 -25 -39 -54 -48 -62 -8 -9 -14 -17 -12 -17 6 -3 12118 -4 12118
-2 0 7 -105 148 -112 151 -5 2 -8 10 -8 18 0 8 -3 14 -7 14 -5 0 -19 17 -33
38 -14 20 -27 39 -30 42 -3 3 -17 21 -30 40 -14 19 -28 40 -32 45 -72 94 -88
115 -88 120 0 2 -7 13 -15 22 -8 10 -59 79 -114 153 -54 74 -105 142 -112 151
-8 8 -30 37 -49 65 -19 27 -38 51 -42 52 -4 2 -8 8 -8 13 0 5 -22 39 -50 74
-27 35 -50 68 -50 73 0 4 -9 14 -20 22 -11 8 -20 18 -20 22 0 5 -158 224 -197
273 -5 6 -20 26 -33 45 -13 19 -28 40 -33 45 -4 6 -26 35 -48 65 -22 30 -45
62 -52 70 -7 8 -41 56 -77 105 -35 50 -68 92 -72 93 -4 2 -8 10 -8 17 0 7 -3
15 -8 17 -4 2 -32 37 -62 78 -30 41 -58 80 -62 85 -24 31 -97 130 -118 160
-14 20 -35 48 -47 63 -13 15 -23 30 -23 33 0 4 -13 22 -30 40 -16 19 -30 37
-30 40 0 3 -9 17 -20 30 -12 12 -30 38 -41 56 -11 18 -25 33 -30 33 -5 0 -9 5
-9 10 0 9 -130 190 -170 237 -5 7 -10 17 -10 23 0 5 -4 10 -9 10 -5 0 -20 17
-32 38 -13 20 -25 39 -29 42 -3 3 -18 23 -35 45 -16 22 -35 46 -42 53 -7 7
-13 17 -13 22 0 5 -10 20 -22 33 -13 13 -27 30 -33 39 -29 45 -50 73 -133 183
-4 6 -27 38 -52 73 -25 34 -57 77 -72 95 -15 18 -28 37 -28 42 0 6 -9 17 -20
25 -11 8 -20 18 -20 23 0 10 -61 90 -72 95 -5 2 -8 10 -8 17 0 7 -4 15 -8 17
-5 2 -22 23 -40 48 -35 50 -246 339 -259 355 -5 6 -19 26 -33 45 -13 19 -27
37 -30 40 -3 3 -35 46 -70 95 -36 50 -67 92 -70 95 -3 3 -17 21 -30 40 -13 19
-68 95 -122 167 -54 73 -98 137 -98 143 0 6 -4 8 -10 5 -5 -3 -10 1 -10 9 0 9
-4 16 -10 16 -5 0 -10 6 -10 14 0 8 -3 16 -7 18 -5 2 -36 41 -70 88 -34 47
-66 90 -70 95 -5 6 -20 26 -33 45 -13 19 -28 40 -32 45 -5 6 -40 53 -79 105
-38 52 -76 103 -84 113 -8 9 -15 19 -15 22 0 2 -30 44 -67 94 -38 49 -75 99
-83 111 -8 12 -32 45 -53 73 -21 29 -47 63 -57 77 -10 14 -34 46 -54 73 -20
26 -36 51 -36 55 0 4 -9 14 -20 22 -11 8 -20 18 -20 23 0 8 -50 75 -77 105 -7
7 -13 17 -13 21 0 4 -8 17 -17 29 -40 46 -50 59 -83 107 -19 28 -37 52 -40 55
-18 18 -90 121 -90 129 0 5 -4 11 -8 13 -9 3 -100 124 -171 226 -24 34 -48 62
-52 62 -5 0 -9 6 -9 14 0 7 -11 25 -25 40 -14 15 -25 29 -25 32 0 2 -20 30
-44 61 -24 32 -78 105 -120 163 -42 58 -83 112 -91 121 -8 9 -15 21 -15 27 0
5 -3 12 -8 14 -4 2 -25 28 -47 58 -22 30 -45 61 -52 68 -7 8 -18 23 -24 34 -6
11 -17 27 -25 36 -13 17 -107 143 -142 192 -9 13 -38 52 -64 87 -27 34 -48 64
-48 67 0 3 -11 17 -25 32 -14 15 -25 31 -25 37 0 5 -6 15 -14 21 -7 6 -51 63
-97 126 -45 63 -87 120 -91 125 -5 6 -33 44 -63 85 -29 41 -58 80 -62 85 -5 6
-19 26 -33 45 -13 19 -27 37 -30 40 -3 3 -32 42 -64 88 -33 45 -62 82 -65 81
-3 0 -58 -72 -121 -160z"/>
<path d="M10060 12163 c-14 -20 -29 -43 -35 -52 -5 -8 -14 -20 -20 -26 -5 -7
-18 -23 -28 -36 -9 -13 -65 -90 -125 -171 -59 -80 -114 -156 -122 -169 -8 -12
-22 -30 -30 -38 -8 -9 -28 -37 -45 -61 -16 -25 -35 -52 -43 -60 -11 -13 -106
-141 -160 -219 -9 -13 -22 -28 -27 -35 -6 -6 -26 -33 -45 -61 -19 -27 -40 -56
-47 -65 -7 -8 -34 -45 -60 -81 -285 -389 -407 -554 -415 -557 -5 -2 -8 -7 -8
-12 0 -7 -31 -50 -138 -195 -4 -5 -29 -38 -55 -73 -26 -34 -47 -66 -47 -71 0
-5 -4 -11 -8 -13 -4 -1 -21 -21 -37 -43 -17 -22 -33 -44 -38 -50 -35 -46 -64
-86 -77 -105 -8 -12 -36 -49 -61 -83 -46 -61 -47 -62 -30 -90 9 -16 23 -36 31
-45 9 -9 31 -39 50 -67 19 -27 39 -56 45 -62 20 -24 46 -60 135 -183 49 -69
96 -132 103 -140 8 -8 31 -40 52 -70 21 -30 42 -56 47 -58 4 -2 8 -10 8 -18 0
-8 4 -14 8 -14 5 0 15 -12 23 -27 8 -16 19 -32 25 -38 6 -5 55 -71 109 -145
54 -74 102 -136 106 -138 5 -2 9 -8 9 -14 0 -8 23 -41 88 -123 4 -5 19 -26 32
-45 13 -19 29 -40 35 -47 30 -36 35 -43 35 -48 0 -3 5 -11 10 -18 14 -16 61
-78 85 -111 11 -16 31 -43 45 -62 14 -18 41 -55 60 -81 47 -64 44 -61 90 -120
22 -29 40 -57 40 -62 0 -5 4 -11 8 -13 4 -1 23 -25 42 -52 19 -28 42 -57 50
-67 8 -9 33 -42 55 -74 22 -31 47 -65 55 -75 8 -10 33 -44 55 -75 22 -31 47
-65 55 -75 8 -10 24 -31 35 -46 11 -15 35 -47 53 -71 17 -24 32 -48 32 -53 0
-6 3 -10 8 -10 4 0 18 -17 32 -38 14 -20 29 -42 35 -48 31 -36 45 -55 45 -64
0 -6 5 -10 10 -10 6 0 10 -7 10 -15 0 -8 3 -15 8 -15 4 0 18 -17 32 -38 14
-20 27 -39 30 -42 8 -7 242 -327 255 -348 6 -9 17 -24 25 -32 8 -8 20 -23 25
-32 8 -13 229 -317 257 -353 40 -51 88 -117 108 -147 14 -21 28 -38 33 -38 4
0 7 -4 7 -10 0 -5 7 -18 15 -27 16 -19 142 -190 215 -292 25 -34 55 -74 67
-89 13 -15 23 -33 23 -39 0 -7 4 -13 9 -13 4 0 28 -28 52 -62 24 -35 47 -67
51 -73 5 -5 25 -32 45 -60 21 -27 41 -54 45 -60 9 -11 75 -101 157 -215 30
-41 59 -79 63 -85 5 -5 26 -35 48 -65 22 -30 43 -59 47 -65 5 -5 26 -35 48
-65 22 -30 42 -57 45 -60 3 -3 21 -27 39 -55 19 -27 38 -52 41 -55 3 -3 66
-88 140 -190 74 -102 138 -189 142 -195 5 -5 28 -37 53 -70 25 -33 50 -68 57
-77 7 -9 20 -26 28 -38 8 -12 64 -88 123 -168 l109 -147 1749 0 c962 0 1749 2
1749 5 0 3 -13 21 -30 40 -16 19 -29 38 -30 43 0 4 -8 15 -17 26 -10 10 -40
50 -68 89 -27 39 -53 71 -57 72 -5 0 -8 5 -8 11 0 6 -10 24 -22 39 -13 15 -30
37 -38 50 -8 12 -27 36 -42 54 -15 17 -28 36 -28 43 0 6 -3 13 -7 15 -12 5
-103 127 -103 137 0 5 -7 11 -15 15 -8 3 -15 12 -15 21 0 8 -3 15 -7 15 -5 0
-24 24 -43 53 -19 28 -39 57 -45 63 -14 15 -40 50 -152 204 -53 74 -105 144
-115 154 -10 11 -18 24 -18 28 0 5 -9 19 -21 31 -11 12 -53 67 -92 122 -40 55
-77 107 -84 115 -7 8 -35 47 -63 85 -28 39 -60 81 -70 95 -10 14 -48 66 -84
115 -36 50 -69 95 -73 100 -5 6 -51 69 -103 140 -52 72 -100 136 -107 143 -7
7 -13 16 -13 20 0 4 -16 25 -35 47 -20 22 -41 52 -48 68 -6 15 -15 27 -18 27
-4 0 -23 24 -42 53 -20 30 -43 59 -51 66 -9 8 -16 17 -16 22 0 5 -7 17 -16 27
-8 9 -57 73 -107 142 -257 350 -365 496 -391 534 -16 22 -32 43 -37 44 -5 2
-9 10 -9 17 0 7 -3 15 -8 17 -4 2 -50 62 -102 133 -52 72 -110 150 -128 175
-38 51 -54 73 -111 150 -22 30 -47 64 -55 75 -9 11 -49 65 -88 120 -40 55 -75
102 -78 105 -3 3 -14 18 -25 34 -24 35 -33 47 -165 226 -58 78 -109 149 -115
158 -5 9 -14 21 -20 27 -5 7 -19 24 -30 39 -54 75 -91 121 -97 124 -5 2 -8 8
-8 14 0 6 -10 23 -22 38 -13 15 -32 40 -43 55 -11 16 -26 34 -32 41 -7 7 -13
15 -13 18 0 5 -116 163 -145 199 -8 9 -15 22 -15 27 0 6 -3 10 -7 10 -5 0 -19
17 -33 38 -14 20 -29 42 -35 48 -5 6 -17 22 -25 34 -15 23 -203 277 -217 295
-5 6 -15 21 -24 35 -9 14 -26 36 -38 49 -11 13 -21 27 -21 31 0 3 -8 15 -18
26 -10 10 -28 35 -42 54 -13 19 -27 37 -30 40 -3 3 -21 28 -39 55 -19 28 -38
52 -41 55 -3 3 -17 21 -30 40 -13 19 -27 37 -30 40 -3 3 -21 28 -40 55 -19 28
-42 59 -52 69 -10 11 -18 24 -18 28 0 5 -9 19 -21 31 -11 12 -53 67 -92 122
-39 55 -74 102 -77 105 -4 3 -21 28 -40 55 -19 28 -36 52 -40 55 -3 3 -37 48
-75 100 -38 52 -72 96 -77 98 -4 2 -8 8 -8 13 0 9 -65 98 -95 130 -8 9 -15 18
-15 22 0 5 -105 150 -143 197 -7 9 -25 34 -41 58 -16 23 -33 42 -37 42 -5 0
-8 3 -7 8 3 8 -52 85 -64 90 -5 2 -8 8 -8 13 0 5 -7 17 -15 26 -8 10 -46 61
-84 113 -39 52 -74 100 -78 105 -4 6 -15 21 -24 35 -9 14 -25 35 -35 47 -11
12 -31 39 -46 60 -15 21 -62 86 -105 144 -96 130 -103 141 -153 209 -22 30
-43 60 -48 65 -4 6 -19 26 -32 45 -14 19 -27 37 -30 40 -3 3 -46 60 -95 128
-49 67 -91 122 -94 122 -3 0 -17 -17 -31 -37z"/>
</g>
</svg>
